<svg width="60" height="60" viewBox="0 0 60 60" fill="none" xmlns="http://www.w3.org/2000/svg">
<path d="M43.7822 20.9127C43.2619 20.4444 42.8292 20.0646 42.7221 20.2103C42.6171 20.3495 42.8867 21.0138 43.4158 21.574C43.9424 22.1394 44.5212 22.295 44.617 22.0583C44.7153 21.8192 44.3002 21.3817 43.7822 20.9127Z" fill="#FE9A35"/>
<path d="M42.1821 21.1992C41.7099 20.5726 41.3224 20.194 41.2406 20.4442C41.1614 20.6905 41.4471 21.4912 41.9519 22.1528C42.4554 22.8193 42.9616 23.0501 43.0083 22.7643C43.0572 22.4779 42.6531 21.8271 42.1821 21.1992Z" fill="#FE9A35"/>
<path d="M40.5935 21.2318C40.1465 20.5661 39.7767 20.2974 39.7139 20.6846C39.7668 21.4308 40.0327 22.1275 40.4622 22.6452C40.959 23.3247 41.4136 23.5001 41.4245 23.1026C41.2859 22.3962 40.9988 21.7499 40.5935 21.2318Z" fill="#FE9A35"/>
<path d="M38.9708 21.2469C38.5281 20.6138 38.1554 20.5077 38.1089 21.0382C38.1581 21.8518 38.4451 22.6134 38.9143 23.1754C39.4176 23.8168 39.8392 23.8661 39.824 23.3294C39.6997 22.5483 39.4041 21.8268 38.9708 21.2469Z" fill="#FE9A35"/>
<path d="M37.2829 21.3242C36.8279 20.764 36.4391 20.8373 36.4058 21.5048C36.4265 21.9355 36.5146 22.3568 36.665 22.7445C36.8153 23.1322 37.025 23.4785 37.2819 23.7636C37.8034 24.3384 38.2087 24.2257 38.1749 23.547C38.0714 22.7058 37.7592 21.9276 37.2829 21.3242Z" fill="#FE9A35"/>
<path d="M35.5074 21.4607C35.0271 20.9896 34.6113 21.2379 34.5874 22.0272C34.6018 22.4816 34.6946 22.9266 34.8592 23.3312C35.0239 23.7359 35.2565 24.0904 35.5409 24.3701C36.0906 24.869 36.4961 24.5853 36.4512 23.7703C36.3745 22.8795 36.0382 22.0564 35.5074 21.4607Z" fill="#FE9A35"/>
<path d="M33.6823 21.8114C33.1885 21.3365 32.7437 21.5781 32.6919 22.3564C32.6937 22.8107 32.7772 23.2586 32.936 23.6664C33.0949 24.0742 33.325 24.4313 33.6091 24.7108C34.1682 25.2319 34.6115 24.969 34.5973 24.1472C34.5747 23.701 34.4822 23.2648 34.3252 22.8638C34.1681 22.4629 33.9496 22.1052 33.6823 21.8114Z" fill="#FE9A35"/>
<path d="M31.751 22.2346C31.2521 21.7051 30.7848 21.8348 30.6974 22.5149C30.6895 22.9502 30.7607 23.3821 30.9056 23.7774C31.0505 24.1727 31.2653 24.5209 31.5335 24.7953C32.088 25.3814 32.5741 25.2577 32.6037 24.5216C32.5917 24.0874 32.5099 23.6609 32.3634 23.2678C32.2168 22.8747 32.0085 22.5232 31.751 22.2346Z" fill="#FE9A35"/>
<path d="M29.6951 22.5315C29.1992 21.9484 28.7158 21.9574 28.5958 22.5324C28.577 22.9431 28.6344 23.3537 28.7635 23.7316C28.8926 24.1094 29.0898 24.4441 29.3394 24.709C29.8796 25.3498 30.398 25.3718 30.4715 24.7402C30.471 24.3242 30.4017 23.9129 30.268 23.5326C30.1343 23.1523 29.9392 22.8114 29.6951 22.5315Z" fill="#FE9A35"/>
<path d="M27.5418 22.6725C27.0683 22.0174 26.5783 21.8816 26.42 22.3357C26.3816 22.7148 26.4163 23.1 26.5212 23.4586C26.626 23.8172 26.798 24.1386 27.0224 24.3956C27.5259 25.0989 28.0657 25.2932 28.1917 24.7915C28.2107 24.4001 28.1624 24.0082 28.0502 23.6425C27.9381 23.2768 27.7646 22.9459 27.5418 22.6725Z" fill="#FE9A35"/>
<path d="M25.2689 22.5795C24.8239 21.8931 24.3453 21.6562 24.1695 22.0088C23.9957 22.3624 24.2025 23.195 24.665 23.9147C25.1275 24.6344 25.6577 24.9419 25.8145 24.5537C25.9721 24.1677 25.7131 23.263 25.2689 22.5795Z" fill="#FE9A35"/>
<path d="M22.9378 22.2846C22.5332 21.5841 22.0789 21.2621 21.8966 21.5265C21.7158 21.7919 21.8779 22.5546 22.2882 23.2735C22.6974 23.9907 23.1999 24.3833 23.3754 24.0996C23.5508 23.8159 23.3415 22.9842 22.9378 22.2846Z" fill="#FE9A35"/>
<path d="M20.5987 21.8282C20.2419 21.1245 19.8253 20.7352 19.6455 20.9248C19.4671 21.1164 19.5926 21.821 19.9464 22.5287C20.3001 23.2364 20.7542 23.6815 20.9349 23.4851C21.1155 23.2886 20.9544 22.5287 20.5987 21.8282Z" fill="#FE9A35"/>
<path d="M18.3041 21.2602C17.9972 20.5578 17.6231 20.1062 17.4547 20.2361C17.2863 20.366 17.3855 21.0301 17.6868 21.7325C17.9869 22.435 18.3835 22.9147 18.557 22.7851C18.7306 22.6555 18.6105 21.9623 18.3041 21.2602Z" fill="#FE9A35"/>
<path d="M16.2391 22.0864C16.3935 22.0083 16.3295 21.3499 16.0961 20.6158C15.8627 19.8817 15.5483 19.3499 15.3939 19.428C15.2395 19.5061 15.3035 20.1644 15.5368 20.8985C15.7702 21.6326 16.0846 22.1645 16.2391 22.0864Z" fill="#FE9A35"/>
<path d="M42.0704 17.3298C41.7939 16.6771 41.5503 16.1755 41.4383 16.2871C41.3293 16.3954 41.4132 17.1058 41.7123 17.8052C42.0096 18.5079 42.3896 18.8833 42.4767 18.7263C42.5655 18.5668 42.345 17.9851 42.0704 17.3298Z" fill="#FE9A35"/>
<path d="M40.8321 17.1083C40.5638 16.4015 40.3047 15.9732 40.1861 16.2048C40.107 16.8203 40.2138 17.4508 40.4854 17.9718C40.7954 18.6987 41.1602 19.0386 41.2339 18.789C41.2152 18.1948 41.0769 17.6165 40.8321 17.1083Z" fill="#FE9A35"/>
<path d="M39.4795 16.8741C39.2003 16.1773 38.9078 15.8807 38.783 16.2462C38.7006 16.9294 38.8261 17.6266 39.1344 18.1979C39.4702 18.9 39.8325 19.1376 39.8989 18.7702C39.8916 18.103 39.7471 17.4497 39.4795 16.8741Z" fill="#FE9A35"/>
<path d="M38.006 16.707C37.6992 16.0622 37.3624 15.9295 37.2349 16.4284C37.1927 16.793 37.2087 17.1646 37.2819 17.5214C37.355 17.8782 37.4839 18.213 37.6609 18.5062C38.0318 19.1514 38.4019 19.2507 38.4646 18.7534C38.4718 18.0297 38.3125 17.3189 38.006 16.707Z" fill="#FE9A35"/>
<path d="M36.4107 16.6271C36.0645 16.0611 35.6783 16.1038 35.551 16.7271C35.5069 17.1124 35.5302 17.5053 35.6194 17.878C35.7085 18.2508 35.8614 18.5944 36.0671 18.8847C36.4797 19.4544 36.8659 19.3953 36.9268 18.7721C36.9527 18.0039 36.7707 17.2476 36.4107 16.6271Z" fill="#FE9A35"/>
<path d="M34.6996 16.6205C34.305 16.1475 33.8684 16.3591 33.7436 17.0909C33.6957 17.4932 33.7266 17.9042 33.8336 18.288C33.9405 18.6718 34.1203 19.0167 34.3573 19.2928C34.8161 19.7803 35.2261 19.5625 35.2875 18.8186C35.3118 18.4212 35.2722 18.0217 35.1712 17.644C35.0702 17.2663 34.9098 16.9182 34.6996 16.6205Z" fill="#FE9A35"/>
<path d="M32.9046 16.8449C32.4906 16.38 32.0293 16.594 31.8904 17.3125C31.8361 17.711 31.8636 18.1204 31.9701 18.5017C32.0767 18.8831 32.2588 19.2237 32.4992 19.4912C32.9711 19.9818 33.4124 19.7745 33.494 19.0322C33.5281 18.6355 33.493 18.2342 33.3912 17.8563C33.2893 17.4785 33.1233 17.1333 32.9046 16.8449Z" fill="#FE9A35"/>
<path d="M31.0041 17.1788C30.5856 16.6803 30.1206 16.8006 29.9689 17.4315C29.9134 17.8115 29.9366 18.2031 30.0361 18.5685C30.1356 18.934 30.3082 19.2609 30.5371 19.5177C31.0036 20.0488 31.4682 19.9499 31.5716 19.2882C31.6081 18.9055 31.5761 18.5173 31.4779 18.1522C31.3797 17.7872 31.2178 17.4545 31.0041 17.1788Z" fill="#FE9A35"/>
<path d="M29.0123 17.4576C28.5961 16.9244 28.1314 16.9482 27.9685 17.4892C27.9117 17.8474 27.9297 18.2181 28.0208 18.565C28.1119 18.9118 28.273 19.2228 28.4881 19.4674C28.942 20.0323 29.4213 20.0417 29.5452 19.4705C29.5849 19.1059 29.5576 18.7347 29.4651 18.3856C29.3727 18.0365 29.2178 17.719 29.0123 17.4576Z" fill="#FE9A35"/>
<path d="M26.9594 17.6687C26.5624 17.0816 26.1047 16.9839 25.924 17.4234C25.8582 17.756 25.8629 18.1045 25.9377 18.434C26.0125 18.7634 26.1548 19.0623 26.3502 19.3006C26.7738 19.912 27.2583 20.0559 27.4119 19.5913C27.4614 19.2486 27.4462 18.8959 27.3676 18.5619C27.289 18.2279 27.1492 17.9219 26.9594 17.6687Z" fill="#FE9A35"/>
<path d="M24.8221 17.7469C24.4441 17.1375 24.0011 16.9545 23.8168 17.3105C23.6338 17.6655 23.7904 18.4366 24.1847 19.063C24.579 19.6894 25.0516 19.92 25.2187 19.5462C25.2732 19.2282 25.2656 18.8983 25.1965 18.5848C25.1275 18.2714 24.9989 17.9838 24.8221 17.7469Z" fill="#FE9A35"/>
<path d="M22.6419 17.7098C22.2897 17.0845 21.8676 16.8255 21.6849 17.1054C21.5037 17.3839 21.6354 18.1042 21.9954 18.7388C22.3554 19.3735 22.8048 19.6764 22.9788 19.3868C23.1527 19.0972 22.9939 18.333 22.6419 17.7098Z" fill="#FE9A35"/>
<path d="M20.4427 17.5664C20.1204 16.929 19.7258 16.5992 19.5496 16.8111C19.3733 17.0229 19.4849 17.7019 19.8087 18.3428C20.1313 18.9842 20.5474 19.3461 20.7214 19.129C20.8953 18.9119 20.7647 18.2025 20.4427 17.5664Z" fill="#FE9A35"/>
<path d="M18.251 17.3305C17.9608 16.6785 17.5966 16.2809 17.4308 16.4327C17.2649 16.5844 17.3608 17.2353 17.6493 17.8892C17.9378 18.5431 18.313 18.9555 18.4804 18.801C18.6477 18.6464 18.5411 17.9832 18.251 17.3305Z" fill="#FE9A35"/>
<path d="M16.3134 18.4021C16.4669 18.3016 16.3678 17.6768 16.0918 17.0066C15.8159 16.3365 15.4677 15.8747 15.3142 15.9752C15.1606 16.0757 15.2598 16.7005 15.5357 17.3707C15.8117 18.0408 16.1598 18.5026 16.3134 18.4021Z" fill="#FE9A35"/>
<path d="M41.6116 13.2695C41.56 12.5484 41.4748 11.9924 41.3372 12.0661C41.2018 12.1389 41.0913 12.8459 41.1729 13.6043C41.2522 14.3653 41.4686 14.855 41.5739 14.7439C41.6816 14.2637 41.6946 13.7575 41.6116 13.2695Z" fill="#FE9A35"/>
<path d="M40.5513 12.711C40.4767 11.9677 40.3263 11.5003 40.154 11.7074C39.9374 12.2586 39.8903 12.8914 40.0219 13.4838C40.1445 14.244 40.3913 14.6489 40.5122 14.4277C40.6343 13.8677 40.6477 13.2789 40.5513 12.711Z" fill="#FE9A35"/>
<path d="M39.3129 12.2572C39.1966 11.5367 38.9671 11.2092 38.7665 11.5585C38.5472 12.1753 38.5236 12.8746 38.7004 13.5126C38.878 14.2328 39.1645 14.5106 39.3025 14.1648C39.4373 13.5409 39.4409 12.8834 39.3129 12.2572Z" fill="#FE9A35"/>
<path d="M37.9056 11.9441C37.7313 11.2821 37.4182 11.1263 37.1971 11.6153C37.088 11.9441 37.0343 12.2978 37.0394 12.6541C37.0444 13.0104 37.1081 13.3615 37.2264 13.6852C37.4667 14.337 37.7975 14.4635 37.9517 13.9871C38.0998 13.3158 38.0837 12.6037 37.9056 11.9441Z" fill="#FE9A35"/>
<path d="M36.3436 11.77C36.1013 11.1919 35.7051 11.2219 35.4732 11.8382C35.3633 12.1833 35.3191 12.5562 35.3443 12.9268C35.3694 13.2973 35.4632 13.6553 35.618 13.9719C35.9247 14.5374 36.3028 14.5015 36.4703 13.8995C36.6337 13.1937 36.5887 12.4371 36.3436 11.77Z" fill="#FE9A35"/>
<path d="M34.644 11.7169C34.3279 11.2389 33.8543 11.4517 33.62 12.1779C33.5077 12.5348 33.4737 12.9233 33.5215 13.3025C33.5693 13.6817 33.6972 14.0377 33.8917 14.3331C34.266 14.8061 34.6922 14.6071 34.8702 13.8876C34.9612 13.527 34.988 13.1456 34.9489 12.7705C34.9098 12.3953 34.8057 12.0356 34.644 11.7169Z" fill="#FE9A35"/>
<path d="M32.8213 11.9391C32.4765 11.4809 31.9816 11.7072 31.7471 12.4234C31.6352 12.7764 31.6047 13.162 31.659 13.5359C31.7133 13.9097 31.8503 14.2567 32.0541 14.5367C32.4487 14.9991 32.9013 14.7987 33.0872 14.08C33.1816 13.7223 33.2068 13.3413 33.1605 12.9688C33.1143 12.5963 32.9979 12.2432 32.8213 11.9391Z" fill="#FE9A35"/>
<path d="M30.8842 12.3198C30.813 12.2101 30.719 12.1275 30.6127 12.0812C30.5064 12.0348 30.392 12.0265 30.2823 12.0573C30.1725 12.088 30.0716 12.1566 29.9909 12.2553C29.9102 12.354 29.8527 12.479 29.825 12.6164C29.7212 12.9546 29.6957 13.323 29.7514 13.6788C29.8072 14.0346 29.9418 14.3631 30.1397 14.6263C30.204 14.742 30.2936 14.8317 30.3976 14.8843C30.5017 14.9368 30.6156 14.9501 30.7255 14.9223C30.8354 14.8945 30.9365 14.827 31.0164 14.728C31.0963 14.6289 31.1517 14.5026 31.1756 14.3646C31.264 14.0198 31.2837 13.6529 31.2328 13.2962C31.182 12.9396 31.0623 12.6043 30.8842 12.3198Z" fill="#FE9A35"/>
<path d="M28.8736 12.6952C28.817 12.5802 28.7364 12.4869 28.6407 12.4257C28.5449 12.3644 28.4377 12.3375 28.3306 12.3479C28.2235 12.3582 28.1208 12.4055 28.0335 12.4845C27.9463 12.5634 27.878 12.6711 27.836 12.7957C27.7408 13.1171 27.7199 13.466 27.7757 13.8019C27.8315 14.1377 27.9618 14.4466 28.1513 14.6928C28.5381 15.2069 28.9977 15.1887 29.1796 14.6307C29.2619 14.3017 29.277 13.9518 29.2235 13.6135C29.1701 13.2751 29.0497 12.9593 28.8736 12.6952Z" fill="#FE9A35"/>
<path d="M26.8201 13.0496C26.4801 12.5017 26.0303 12.4426 25.8166 12.8943C25.7233 13.1966 25.6993 13.5258 25.7472 13.8444C25.795 14.1631 25.913 14.4584 26.0874 14.6967C26.4517 15.2528 26.9049 15.3511 27.0944 14.8915C27.1757 14.5803 27.1932 14.2481 27.1452 13.926C27.0972 13.604 26.9854 13.3024 26.8201 13.0496Z" fill="#FE9A35"/>
<path d="M24.7052 13.3147C24.3735 12.7482 23.9424 12.6088 23.7401 12.9801C23.6543 13.2639 23.633 13.5724 23.6789 13.8707C23.7247 14.169 23.8357 14.4452 23.9994 14.6681C24.3466 15.2396 24.7862 15.4162 24.9725 15.0383C25.0495 14.7463 25.0654 14.4342 25.0185 14.1322C24.9717 13.8302 24.8638 13.5486 24.7052 13.3147Z" fill="#FE9A35"/>
<path d="M22.5595 13.4943C22.2405 12.9122 21.8301 12.6958 21.6392 12.9934C21.4482 13.291 21.5563 13.9915 21.8832 14.5771C22.2101 15.1628 22.6297 15.4098 22.8115 15.1086C22.9932 14.8073 22.8775 14.0762 22.5595 13.4943Z" fill="#FE9A35"/>
<path d="M20.3977 13.5825C20.0963 12.9828 19.709 12.6928 19.5307 12.9221C19.3523 13.1513 19.4524 13.8172 19.7574 14.4193C20.0624 15.0213 20.4563 15.332 20.6311 15.1C20.8058 14.8681 20.6991 14.1817 20.3977 13.5825Z" fill="#FE9A35"/>
<path d="M18.2357 13.5699C17.9541 12.9479 17.5929 12.5839 17.4265 12.7519C17.2614 12.9195 17.3539 13.5603 17.6357 14.1853C17.9176 14.8103 18.282 15.1827 18.4478 15.0114C18.6136 14.8402 18.5173 14.1922 18.2357 13.5699Z" fill="#FE9A35"/>
<path d="M16.3476 14.7985C16.5008 14.6849 16.3854 14.0793 16.0899 13.446C15.7944 12.8127 15.4306 12.3914 15.2774 12.5051C15.1242 12.6188 15.2396 13.2243 15.5351 13.8577C15.8306 14.491 16.1944 14.9122 16.3476 14.7985Z" fill="#FE9A35"/>
<path d="M42.4165 9.26791C42.5892 8.54431 42.6686 7.91677 42.5053 7.89044C42.3442 7.86412 42.0289 8.49666 41.8865 9.27257C41.7417 10.0489 41.7998 10.6358 41.9308 10.611C42.0637 10.5847 42.2419 9.99408 42.4165 9.26791Z" fill="#FE9A35"/>
<path d="M41.5192 8.0458C41.6491 7.27147 41.6131 6.71423 41.3781 6.85069C41.0131 7.30966 40.7969 7.9238 40.772 8.57304C40.6942 9.36911 40.8248 9.85479 41.0047 9.7C41.284 9.21209 41.461 8.64306 41.5192 8.0458Z" fill="#FE9A35"/>
<path d="M40.3564 7.10588C40.413 6.3378 40.2425 5.93176 39.9468 6.24932C39.5833 6.80402 39.3934 7.50735 39.413 8.22651C39.423 8.98568 39.6401 9.32048 39.8669 9.016C40.1605 8.44468 40.3294 7.7858 40.3564 7.10588Z" fill="#FE9A35"/>
<path d="M38.9436 6.49655C38.9049 5.78729 38.596 5.5891 38.2582 6.0861C38.0809 6.39015 37.9533 6.73557 37.8827 7.10232C37.812 7.46907 37.7999 7.84985 37.8469 8.22257C37.9552 8.8996 38.2619 9.05221 38.53 8.59028C38.8325 7.96113 38.9767 7.23113 38.9436 6.49655Z" fill="#FE9A35"/>
<path d="M37.312 6.21684C37.1656 5.6087 36.7281 5.64544 36.3665 6.30314C36.1917 6.62118 36.0779 6.98607 36.034 7.36904C35.9902 7.75201 36.0174 8.1426 36.1137 8.51C36.323 9.07648 36.7155 9.03316 37.0146 8.41986C37.3264 7.75717 37.4323 6.97228 37.312 6.21684Z" fill="#FE9A35"/>
<path d="M35.5003 6.22248C35.2431 5.74122 34.6943 6.0128 34.3284 6.80145C34.1533 7.12407 34.0536 7.50216 34.0405 7.8927C34.0275 8.28325 34.1016 8.67058 34.2544 9.01065C34.5615 9.45558 35.0323 9.21741 35.3512 8.46516C35.5124 8.1316 35.6098 7.75528 35.6357 7.36601C35.6616 6.97675 35.6152 6.58523 35.5003 6.22248Z" fill="#FE9A35"/>
<path d="M33.514 6.64539C33.2143 6.20553 32.649 6.5156 32.3022 7.30076C32.1341 7.61971 32.0458 7.99497 32.0489 8.3779C32.052 8.76083 32.1462 9.13378 32.3193 9.44839C32.6589 9.86583 33.1509 9.604 33.4602 8.84158C33.6179 8.5121 33.7056 8.137 33.715 7.75236C33.7245 7.36773 33.6552 6.98651 33.514 6.64539Z" fill="#FE9A35"/>
<path d="M31.4037 7.32257C31.0922 6.87271 30.5593 7.10222 30.2498 7.79966C30.0999 8.10903 30.0278 8.46839 30.043 8.83043C30.0582 9.19247 30.16 9.54023 30.335 9.82791C30.6782 10.266 31.1588 10.0862 31.4365 9.39963C31.578 9.081 31.6495 8.72057 31.6437 8.35548C31.6379 7.99039 31.5551 7.63384 31.4037 7.32257Z" fill="#FE9A35"/>
<path d="M29.242 8.0363C28.9236 7.56978 28.4215 7.70549 28.1465 8.30821C28.0151 8.60628 27.9582 8.94749 27.9833 9.28705C28.0085 9.62661 28.1145 9.94866 28.2873 10.2109C28.3558 10.3191 28.4459 10.4022 28.5485 10.4516C28.651 10.501 28.7621 10.5148 28.8703 10.4917C28.9785 10.4686 29.0799 10.4094 29.1638 10.3202C29.2477 10.231 29.3111 10.1151 29.3475 9.98449C29.4722 9.67843 29.5284 9.33522 29.5098 8.99189C29.4912 8.64855 29.3986 8.31814 29.242 8.0363Z" fill="#FE9A35"/>
<path d="M27.0666 8.73139C27.0158 8.61582 26.9416 8.51937 26.8515 8.45194C26.7614 8.38451 26.6587 8.34852 26.5539 8.34767C26.4491 8.34682 26.3461 8.38115 26.2553 8.44712C26.1645 8.51308 26.0893 8.60832 26.0374 8.72306C25.9179 9.00841 25.8678 9.33178 25.8931 9.65284C25.9185 9.9739 26.0183 10.2784 26.18 10.5285C26.5082 11.0405 26.9562 11.0717 27.1898 10.5763C27.3026 10.2832 27.3507 9.95716 27.329 9.63251C27.3074 9.30786 27.2167 8.99658 27.0666 8.73139Z" fill="#FE9A35"/>
<path d="M24.8604 9.31212C24.5535 8.77638 24.1125 8.69016 23.885 9.09553C23.7813 9.36756 23.7426 9.67174 23.7735 9.97102C23.8045 10.2703 23.9038 10.5518 24.0593 10.7812C24.3801 11.3163 24.8098 11.4358 25.0231 11.0297C25.1223 10.7518 25.1596 10.4451 25.1309 10.1424C25.1023 9.83981 25.0087 9.55276 24.8604 9.31212Z" fill="#FE9A35"/>
<path d="M22.6497 9.75815C22.3477 9.2 21.9315 9.02172 21.7264 9.34228C21.6368 9.60179 21.6075 9.88803 21.6419 10.1677C21.6764 10.4474 21.7731 10.709 21.9208 10.922C22.2309 11.4814 22.6409 11.6853 22.8372 11.3635C22.9242 11.0996 22.9527 10.8109 22.9197 10.5281C22.8867 10.2454 22.7934 9.97923 22.6497 9.75815Z" fill="#FE9A35"/>
<path d="M20.444 10.0402C20.151 9.45573 19.7598 9.18698 19.5742 9.42815C19.3886 9.66932 19.4817 10.3347 19.7781 10.9228C20.0746 11.511 20.4621 11.7955 20.6432 11.55C20.8243 11.3045 20.7366 10.6235 20.444 10.0402Z" fill="#FE9A35"/>
<path d="M18.2526 10.1316C17.9734 9.51401 17.6087 9.15421 17.44 9.32274C17.2713 9.49127 17.3633 10.1345 17.6434 10.7584C17.9234 11.3822 18.2851 11.7474 18.4528 11.5717C18.6205 11.396 18.5318 10.7493 18.2526 10.1316Z" fill="#FE9A35"/>
<path d="M16.3289 11.371C16.4826 11.2644 16.3762 10.6486 16.0914 9.99562C15.8065 9.3426 15.451 8.89963 15.2973 9.00622C15.1436 9.11281 15.25 9.7286 15.5348 10.3816C15.8197 11.0346 16.1752 11.4776 16.3289 11.371Z" fill="#FE9A35"/>
<path d="M44.4858 5.8945C44.8832 5.24746 45.1244 4.55661 44.9327 4.38466C44.7435 4.21314 44.2258 4.70806 43.864 5.44423C43.4994 6.18124 43.3992 6.82186 43.553 6.90567C43.7093 6.98789 44.0862 6.5442 44.4858 5.8945Z" fill="#FE9A35"/>
<path d="M43.7323 3.82823C44.0583 3.04182 44.1248 2.35863 43.8226 2.38553C43.522 2.41194 43.02 3.16711 42.7555 3.99201C42.4895 4.81924 42.5142 5.38463 42.7535 5.3214C42.9938 5.25518 43.4048 4.61705 43.7323 3.82823Z" fill="#FE9A35"/>
<path d="M42.5887 2.18877C42.8037 1.35054 42.674 0.812386 42.2788 1.07638C41.7698 1.58095 41.4215 2.29939 41.2975 3.10072C41.1573 3.92545 41.3216 4.3384 41.6407 4.09406C42.0961 3.5878 42.4253 2.92602 42.5887 2.18877Z" fill="#FE9A35"/>
<path d="M41.0889 1.07806C41.1658 0.275902 40.8398 -0.0150016 40.3781 0.488416C39.8865 1.0956 39.592 1.91206 39.5523 2.77833C39.5498 3.5245 39.8544 3.73002 40.2418 3.2865C40.6991 2.67909 40.9952 1.90724 41.0889 1.07806Z" fill="#FE9A35"/>
<path d="M39.287 0.512659C39.2134 -0.18078 38.7091 -0.171783 38.2095 0.545982C37.9746 0.867759 37.7974 1.2496 37.6901 1.6655C37.5829 2.08139 37.5479 2.52157 37.5877 2.95602C37.7248 3.57324 38.1591 3.54266 38.5964 2.90421C39.0517 2.24101 39.2975 1.38973 39.287 0.512659Z" fill="#FE9A35"/>
<path d="M37.2482 0.439684C37.0232 -0.0966401 36.3703 0.21809 35.8614 1.10613C35.6304 1.42725 35.4723 1.821 35.4039 2.24589C35.3355 2.67077 35.3593 3.11106 35.4727 3.52034C35.7401 3.98502 36.2876 3.71536 36.7556 2.89954C36.9826 2.56523 37.1452 2.1692 37.2307 1.74246C37.3161 1.31572 37.3221 0.869831 37.2482 0.439684Z" fill="#FE9A35"/>
<path d="M34.9751 0.979673C34.694 0.512659 34.0269 0.903697 33.5543 1.7999C33.0814 2.69378 32.9978 3.71594 33.3082 4.13247C33.6203 4.549 34.1861 4.22894 34.6306 3.38338C35.0731 2.54008 35.2578 1.44635 34.9751 0.979673Z" fill="#FE9A35"/>
<path d="M32.5602 1.91669C32.2641 1.45734 31.6502 1.77673 31.2424 2.57622C31.0492 2.88132 30.9338 3.25314 30.9116 3.64261C30.8895 4.03208 30.9615 4.42088 31.1182 4.75767C31.4377 5.18445 31.9726 4.93828 32.3581 4.16953C32.5495 3.85179 32.6694 3.47473 32.705 3.07819C32.7406 2.68165 32.6906 2.28035 32.5602 1.91669Z" fill="#FE9A35"/>
<path d="M30.1176 2.9662C29.812 2.50277 29.2483 2.72337 28.8994 3.41439C28.7323 3.70813 28.641 4.05962 28.6378 4.4211C28.6346 4.78258 28.7197 5.13653 28.8816 5.43489C29.2053 5.87933 29.7093 5.72222 30.04 5.05102C30.2065 4.74754 30.302 4.39122 30.3157 4.02264C30.3295 3.65405 30.2608 3.28801 30.1176 2.9662Z" fill="#FE9A35"/>
<path d="M27.695 4.02583C27.6283 3.91124 27.5389 3.82058 27.4359 3.76283C27.3329 3.70508 27.2197 3.68223 27.1075 3.69653C26.9953 3.71083 26.888 3.76179 26.7962 3.84438C26.7045 3.92697 26.6313 4.03833 26.5841 4.16745C26.4372 4.45023 26.361 4.78217 26.3654 5.12022C26.3699 5.45827 26.4547 5.78684 26.6091 6.06333C26.669 6.17807 26.7519 6.27072 26.8495 6.33184C26.947 6.39296 27.0557 6.42036 27.1644 6.41124C27.2731 6.40211 27.378 6.3568 27.4683 6.27992C27.5585 6.20304 27.631 6.09734 27.6783 5.97361C27.8239 5.68275 27.9026 5.34662 27.9055 5.00269C27.9085 4.65877 27.8356 4.32057 27.695 4.02583Z" fill="#FE9A35"/>
<path d="M25.2824 4.96368C25.2349 4.84708 25.1643 4.7479 25.0775 4.67572C24.9907 4.60355 24.8906 4.56082 24.7869 4.55167C24.6832 4.54251 24.5794 4.56724 24.4855 4.62347C24.3915 4.67969 24.3107 4.76551 24.2508 4.87263C24.1269 5.14227 24.0701 5.45254 24.0876 5.76334C24.105 6.07415 24.196 6.37121 24.3487 6.61614C24.6575 7.13189 25.0988 7.2012 25.3504 6.74801C25.4741 6.47293 25.5333 6.15927 25.5213 5.84344C25.5092 5.5276 25.4264 5.22255 25.2824 4.96368Z" fill="#FE9A35"/>
<path d="M22.9071 5.73123C22.6098 5.18916 22.1716 5.05728 21.9448 5.41467C21.8419 5.67224 21.8014 5.96232 21.8285 6.24872C21.8555 6.53511 21.9488 6.80512 22.0968 7.02505C22.4011 7.56571 22.8179 7.72999 23.0372 7.37344C23.1409 7.11223 23.1838 6.81927 23.1608 6.52858C23.1377 6.23789 23.0498 5.9614 22.9071 5.73123Z" fill="#FE9A35"/>
<path d="M20.5769 6.27836C20.2838 5.70897 19.8773 5.47404 19.6797 5.73771C19.4821 6.00137 19.5703 6.6699 19.8664 7.2423C20.1625 7.81469 20.5551 8.07011 20.7488 7.80261C20.9425 7.53512 20.8702 6.84609 20.5769 6.27836Z" fill="#FE9A35"/>
<path d="M18.3011 6.5562C18.0186 5.95073 17.6442 5.60909 17.4707 5.78754C17.2972 5.96598 17.3889 6.60735 17.6717 7.22206C17.9545 7.83678 18.3204 8.18458 18.4934 7.99681C18.6665 7.80904 18.5834 7.16142 18.3011 6.5562Z" fill="#FE9A35"/>
<path d="M16.3314 7.88314C16.4861 7.7759 16.3805 7.15923 16.0956 6.50578C15.8107 5.85232 15.4543 5.40952 15.2996 5.51676C15.1449 5.624 15.2505 6.24067 15.5354 6.89413C15.8204 7.54758 16.1767 7.99038 16.3314 7.88314Z" fill="#FE9A35"/>
<path d="M16.3295 54.9608C16.5024 55.1789 16.5601 55.5423 16.4736 55.7968C15.9836 57.1052 15.58 58.4863 14.6577 59.395C13.8506 60.2309 12.8705 60.1946 11.8329 59.3223C10.8528 58.5227 9.98808 57.4687 9.09452 56.5237C8.51803 55.9058 8.20096 55.4333 7.82624 55.0335C7.1921 54.2702 7.27858 53.0345 7.27858 53.0345V39.1141C7.27858 38.6052 7.07681 38.1691 6.84621 37.7693C6.58679 37.3331 6.26972 37.2604 5.92382 37.5149C5.69323 37.6966 5.43381 37.8783 5.23204 38.1327C4.54025 38.8597 3.93493 39.7319 3.30079 40.5679C2.78195 41.2585 2.17663 41.2585 1.68662 40.5316C1.1966 39.841 0.706583 39.1868 0.245391 38.4962C-0.0428544 38.06 -0.0716789 37.7693 0.130093 37.2604C0.274216 37.006 0.418338 36.7516 3.18549 33.6259C3.44491 33.3351 3.70433 33.1897 4.0214 33.1534C4.56907 33.0443 4.94379 33.3714 5.34733 33.8076C6.99033 35.5522 8.63333 37.2968 10.2763 39.005C10.9969 39.732 11.4005 40.7496 11.4005 41.9854V51.726C11.5158 52.3803 11.7752 52.7801 12.3805 53.4343C13.0147 54.1249 13.62 54.7791 14.5135 55.0335C14.9459 55.1789 15.3494 55.1789 15.753 54.9608C15.9548 54.8154 16.1565 54.7064 16.3295 54.9608ZM14.6577 56.8508C14.7153 56.3783 14.3694 56.5237 14.3694 56.5237C14.0235 56.7417 13.447 56.4873 13.447 56.4873C12.8129 56.2329 11.977 55.3243 10.5646 53.9068C10.161 53.5433 9.87279 52.9981 9.87279 52.3076C9.90161 50.3812 9.87279 48.4549 9.87279 40.5316C9.84396 40.2771 9.78631 40.1318 9.58454 40.0227C9.29629 39.9137 9.03687 40.2408 9.00805 40.786V52.562C9.03687 53.1799 9.15217 53.8341 9.55572 54.3066C10.2763 55.2152 12.1211 57.0689 12.957 57.4323C13.3317 57.614 13.7641 57.614 13.7641 57.614C14.0523 57.6504 14.2829 57.505 14.2829 57.505C14.6577 57.2869 14.6577 56.8508 14.6577 56.8508ZM4.5979 36.0974C4.74202 35.952 4.82849 35.7339 4.74202 35.5158C4.62672 35.2614 4.45377 35.1524 4.19435 35.1887C4.07905 35.1887 3.99258 35.3341 3.87728 35.4432L1.60014 37.9874C1.36955 38.2054 1.28307 38.4235 1.48485 38.7506C1.62897 39.005 1.94604 39.0414 2.17663 38.787C2.69548 38.2418 3.21432 37.6602 3.73316 37.0787L4.5979 36.0974ZM18.7796 56.3783C18.2031 55.9058 18.059 55.1789 18.059 54.3793C17.9437 49.9088 18.0013 45.4382 18.0013 40.9677C18.0013 40.2771 18.1743 39.6593 18.6066 39.1868C19.6443 37.9874 20.8549 37.0787 21.9791 36.0247C22.8727 35.1524 23.8239 34.3164 24.7462 33.4805C25.4092 32.8626 26.2739 32.899 26.9369 33.5532L29.7041 36.2428C29.8194 36.3518 29.9347 36.4972 30.0211 36.6426C30.4823 37.2604 30.4535 37.6602 29.9347 38.2418L28.5223 39.9864C27.9458 40.6406 27.3405 40.6769 26.764 40.0227L24.3715 37.4785C23.968 37.1151 23.5356 36.9333 23.1032 37.2604C22.6132 37.5876 22.4979 38.1327 22.4691 38.7506L22.5556 51.9805C22.5556 52.4893 22.6997 52.9254 22.9879 53.2162L24.3139 54.4156C24.4868 54.5973 24.7462 54.6337 24.9768 54.6337C25.438 54.67 25.6686 54.3793 25.6686 53.7614V47.4372C25.6686 46.3469 25.8992 46.0561 26.764 46.0198C27.4558 46.0198 28.1764 46.0561 28.8682 46.0198C29.7617 45.9834 30.0788 46.6376 30.1076 47.5463C30.1364 48.8911 30.0788 50.2722 30.0788 51.6533C30.0788 52.453 29.7905 52.9981 29.2717 53.3979C27.2828 54.9608 25.2651 56.5237 23.3338 58.2319C23.0168 58.5227 22.6997 58.8498 22.2962 58.9225C21.9503 58.9952 21.6044 58.9588 21.3161 58.7044C20.4514 57.9775 19.6155 57.1416 18.7796 56.3783ZM20.0478 40.6406V52.4166C20.0478 53.1072 20.0478 53.7977 20.4802 54.3066C21.0567 54.9972 21.6908 55.615 22.2962 56.2329C22.5556 56.4873 22.7862 56.451 22.9879 56.1602C23.1897 55.8694 23.1032 55.615 22.8727 55.3606C22.3826 54.8518 21.9214 54.3066 21.4026 53.8341C21.0279 53.4706 20.9126 53.0345 20.9126 52.4893C20.9702 48.6003 20.9702 44.6023 20.9126 40.6769C20.9126 40.0954 20.7973 39.841 20.4802 39.841C20.1631 39.841 20.0478 40.0954 20.0478 40.6406ZM27.4269 47.9097V51.9805C27.4269 52.453 27.5999 52.7074 27.8881 52.671C28.2052 52.671 28.3493 52.4166 28.3493 52.0531C28.3493 50.672 28.3493 49.2909 28.3205 47.9097C28.3205 47.5099 28.2052 47.2555 27.8881 47.2555C27.5422 47.2555 27.4269 47.5099 27.4269 47.9097ZM25.3227 35.116C25.0921 35.4795 25.2651 35.6976 25.4669 35.952C26.1586 36.6426 26.8504 37.3331 27.5134 38.06C27.6287 38.1691 27.744 38.2781 28.0034 38.2781C28.1475 38.2781 28.2917 38.1691 28.3781 37.9147C28.4646 37.6602 28.3781 37.4422 28.234 37.2968L26.0433 35.0434C25.7839 34.7889 25.4957 34.8253 25.3227 35.116ZM33.5666 56.1966C32.8748 55.506 32.5289 54.6337 32.5289 53.4706C32.5577 49.1455 32.5289 44.784 32.5289 40.4589C32.5289 39.2595 32.2406 38.3145 31.2894 37.8056C30.6265 37.4422 30.5976 37.0424 31.0876 36.3518C31.7218 35.5158 32.3271 34.6435 32.9612 33.7713C33.5666 32.9353 34.0566 32.899 34.7195 33.6622L37.0831 36.3518C37.2561 36.5335 37.3426 36.7879 37.429 37.0787C38.4667 36.0974 39.5332 35.1887 40.5133 34.2074C41.4068 33.3351 42.3004 33.5895 43.021 34.2801C43.511 34.7889 43.9434 35.2978 44.4046 35.8066C44.6063 36.0247 44.6928 36.3155 44.6928 36.6426V50.5993C44.6928 51.2899 44.5487 51.9078 44.1452 52.4166C43.4534 53.2889 42.6463 53.9795 41.9257 54.7064L37.8902 58.6681C37.2849 59.2496 36.3914 59.2133 35.786 58.559C35.0654 57.7594 34.3448 56.9235 33.5666 56.1966ZM36.9967 40.2408C36.9967 44.2752 36.9678 48.3095 36.9678 52.3439C36.9678 52.7074 37.0255 52.9981 37.2273 53.2162C37.6885 53.7977 38.1785 54.3429 38.755 54.7064C39.1297 54.9608 39.4179 54.8881 39.7062 54.4883C40.0521 54.0158 40.225 53.4706 40.225 52.7801V40.8223C40.225 40.2408 40.1962 39.6956 39.9944 39.1504C39.5621 38.0237 38.4955 37.6602 37.6885 38.3872C37.1984 38.8597 36.9967 39.4775 36.9967 40.2408ZM33.0189 35.8793C32.8171 36.1337 32.8171 36.4245 33.0189 36.7153C33.2495 37.006 33.4801 37.3331 33.7395 37.5876C34.2583 38.0964 34.4025 38.8233 34.4025 39.5502L34.4313 53.6524C34.4313 54.1249 34.5466 54.561 34.806 54.9245C35.1807 55.4333 35.6419 55.8694 36.0743 56.3419C36.3049 56.5964 36.5643 56.56 36.7373 56.2693C36.939 55.9785 36.8814 55.6877 36.6508 55.4696C36.3049 55.1062 35.9878 54.7427 35.6707 54.3429C35.469 54.1249 35.3248 53.8704 35.3248 53.507V39.841C35.3248 38.9687 35.296 38.0964 34.8348 37.3695C34.4601 36.8243 34.0566 36.3518 33.6242 35.8793C33.4224 35.6249 33.2207 35.6249 33.0189 35.8793ZM40.5133 36.061C40.3403 36.3881 40.4556 36.6062 40.6574 36.7879C40.9456 37.0787 41.2051 37.4422 41.5509 37.6966C42.1563 38.1691 42.2716 38.8233 42.2716 39.6593V50.6357C42.2716 51.2535 42.4157 51.508 42.7328 51.508C43.0498 51.508 43.1651 51.2535 43.1651 50.672V39.1868C43.1363 38.6416 43.1363 38.0237 42.8192 37.5876C42.3292 36.9333 41.7239 36.3881 41.1474 35.8793C40.9168 35.6612 40.6574 35.7703 40.5133 36.061ZM48.3247 58.341L46.2782 55.506C45.9035 54.9608 45.9611 54.561 46.4511 54.3066C47.5465 53.7614 47.8635 52.7074 47.8635 51.3626C47.8347 47.0738 47.8635 42.8213 47.8347 38.5325C47.8347 37.3695 48.1806 36.4972 48.8724 35.8066C49.6506 35.0434 50.3713 34.2437 51.0919 33.4441C51.6972 32.7899 52.5619 32.7172 53.1961 33.3351L58.7592 38.787C59.5951 39.5866 60.0275 40.5679 59.9986 41.949C59.8834 45.9834 59.9122 50.0541 59.9698 54.0522C59.9986 54.9608 59.6528 55.506 59.1339 56.0512L57.0297 58.1229C56.3956 58.7771 55.7038 58.7771 55.0408 58.1592C54.2337 57.396 53.4267 56.6691 52.6196 55.8694C52.4466 55.7241 52.3313 55.7241 52.1584 55.9058L49.9677 58.4136C49.3624 59.1042 48.8436 59.0679 48.3247 58.341ZM55.0408 37.5512C54.7526 37.1151 54.4355 37.0424 54.032 37.2968C53.6284 37.5512 53.2825 37.951 52.9366 38.3145C52.4754 38.787 52.2737 39.4048 52.2737 40.1318L52.3313 53.2889C52.3313 54.2339 53.0808 54.7791 53.7725 54.3793C54.1761 54.0885 54.5796 53.7614 54.9832 53.3979C55.3867 53.0345 55.5597 52.562 55.5597 51.9441C55.5308 47.6917 55.5308 43.4392 55.5308 39.1504C55.5308 38.5325 55.3579 38.0237 55.0408 37.5512ZM48.44 55.3243C48.2094 55.5423 48.0653 55.7968 48.2671 56.1602C48.44 56.451 48.7571 56.4873 49.0165 56.1966C49.3047 55.9058 49.5642 55.5787 49.8812 55.3243C50.6595 54.67 50.9477 53.8341 50.9477 52.6347C50.8901 47.7644 50.9477 42.8577 50.9477 37.9874C50.9477 37.5512 51.063 37.2241 51.3513 36.9333C51.9278 36.4245 52.4754 35.843 53.0231 35.2978C53.3402 35.007 53.3114 34.6072 53.0231 34.3891C52.7925 34.2437 52.5907 34.2801 52.389 34.4982C51.9278 34.9707 51.4666 35.4795 50.9477 35.9157C50.1983 36.4972 50.0254 37.3331 50.0254 38.3508C49.9965 40.786 50.0254 43.2575 50.0254 53.1435C50.0254 53.5797 49.9101 53.8704 49.6506 54.1249C49.2471 54.4883 48.8436 54.9245 48.44 55.3243ZM57.2027 52.9618C57.2027 53.2526 57.0874 53.4706 56.9144 53.6887C56.3668 54.2339 55.8191 54.8518 55.2714 55.4333C55.0697 55.6514 55.012 55.8694 55.185 56.1602C55.3579 56.4146 55.5885 56.451 55.8191 56.3056C55.9056 56.2693 55.9632 56.1966 56.0209 56.1239C56.5109 55.5787 57.0009 55.0335 57.5197 54.5247C57.8656 54.1612 58.0674 53.725 58.1251 53.1435C58.1539 52.7801 58.1827 52.3803 58.1827 51.9805V40.4225C58.1827 40.1318 58.1251 39.841 57.8945 39.7319C57.5197 39.5866 57.2891 39.8773 57.2891 40.4225V51.726C57.2891 52.1258 57.2315 52.562 57.2027 52.9618Z" fill="#FE9A35"/>
</svg>
