<svg width="60" height="60" viewBox="0 0 60 60" fill="none" xmlns="http://www.w3.org/2000/svg">
<path d="M43.7822 20.9127C43.2619 20.4444 42.8292 20.0646 42.7221 20.2103C42.6171 20.3495 42.8867 21.0138 43.4158 21.574C43.9424 22.1394 44.5212 22.295 44.617 22.0583C44.7153 21.8192 44.3002 21.3817 43.7822 20.9127Z" fill="#FE9A35"/>
<path d="M42.1821 21.2002C41.7099 20.5736 41.3224 20.1949 41.2406 20.4452C41.1614 20.6914 41.4471 21.4922 41.9519 22.1538C42.4554 22.8202 42.9616 23.0511 43.0083 22.7653C43.0572 22.4789 42.6531 21.8281 42.1821 21.2002Z" fill="#FE9A35"/>
<path d="M40.5932 21.2318C40.1463 20.5661 39.7765 20.2974 39.7136 20.6846C39.7666 21.4308 40.0325 22.1275 40.462 22.6452C40.9588 23.3247 41.4133 23.5001 41.4243 23.1026C41.2856 22.3962 40.9985 21.7499 40.5932 21.2318Z" fill="#FE9A35"/>
<path d="M38.9708 21.2474C38.5281 20.6143 38.1554 20.5082 38.1089 21.0387C38.1581 21.8523 38.4451 22.6139 38.9143 23.1759C39.4176 23.8173 39.8392 23.8666 39.824 23.3299C39.6997 22.5488 39.4041 21.8273 38.9708 21.2474Z" fill="#FE9A35"/>
<path d="M37.2829 21.3247C36.8279 20.7645 36.4391 20.8378 36.4058 21.5053C36.4265 21.936 36.5146 22.3573 36.665 22.745C36.8153 23.1326 37.025 23.479 37.2819 23.7641C37.8034 24.3389 38.2087 24.2262 38.1749 23.5475C38.0714 22.7063 37.7592 21.9281 37.2829 21.3247Z" fill="#FE9A35"/>
<path d="M35.5074 21.4607C35.0271 20.9896 34.6113 21.2379 34.5874 22.0272C34.6018 22.4816 34.6946 22.9266 34.8592 23.3312C35.0239 23.7359 35.2565 24.0904 35.5409 24.3701C36.0906 24.869 36.4961 24.5853 36.4512 23.7703C36.3745 22.8795 36.0382 22.0564 35.5074 21.4607Z" fill="#FE9A35"/>
<path d="M33.6823 21.8119C33.1885 21.337 32.7437 21.5786 32.6919 22.3569C32.6937 22.8112 32.7772 23.2591 32.936 23.6669C33.0949 24.0747 33.325 24.4318 33.6091 24.7113C34.1682 25.2324 34.6115 24.9695 34.5973 24.1477C34.5747 23.7014 34.4822 23.2653 34.3252 22.8643C34.1681 22.4634 33.9496 22.1057 33.6823 21.8119Z" fill="#FE9A35"/>
<path d="M31.751 22.2351C31.2521 21.7056 30.7848 21.8353 30.6974 22.5154C30.6895 22.9507 30.7607 23.3826 30.9056 23.7779C31.0505 24.1732 31.2653 24.5214 31.5335 24.7958C32.088 25.3819 32.5741 25.2582 32.6037 24.522C32.5917 24.0879 32.5099 23.6614 32.3634 23.2683C32.2168 22.8752 32.0085 22.5237 31.751 22.2351Z" fill="#FE9A35"/>
<path d="M29.6951 22.5325C29.1992 21.9493 28.7158 21.9584 28.5958 22.5334C28.577 22.9441 28.6344 23.3547 28.7635 23.7326C28.8926 24.1104 29.0898 24.4451 29.3394 24.7099C29.8796 25.3508 30.398 25.3728 30.4715 24.7412C30.471 24.3252 30.4017 23.9139 30.268 23.5336C30.1343 23.1533 29.9392 22.8123 29.6951 22.5325Z" fill="#FE9A35"/>
<path d="M27.5418 22.673C27.0683 22.0179 26.5783 21.8821 26.42 22.3362C26.3816 22.7153 26.4163 23.1005 26.5212 23.4591C26.626 23.8177 26.798 24.1391 27.0224 24.3961C27.5259 25.0994 28.0657 25.2937 28.1917 24.7919C28.2107 24.4006 28.1624 24.0087 28.0502 23.643C27.9381 23.2773 27.7646 22.9464 27.5418 22.673Z" fill="#FE9A35"/>
<path d="M25.2691 22.5805C24.8241 21.8941 24.3455 21.6572 24.1697 22.0098C23.996 22.3634 24.2028 23.196 24.6652 23.9157C25.1277 24.6354 25.6579 24.9428 25.8148 24.5547C25.9723 24.1687 25.7134 23.264 25.2691 22.5805Z" fill="#FE9A35"/>
<path d="M22.938 22.2851C22.5334 21.5846 22.0792 21.2626 21.8968 21.527C21.716 21.7924 21.8782 22.5551 22.2884 23.2739C22.6977 23.9912 23.2001 24.3837 23.3756 24.1001C23.5511 23.8164 23.3418 22.9847 22.938 22.2851Z" fill="#FE9A35"/>
<path d="M20.5987 21.8287C20.2419 21.125 19.8253 20.7356 19.6455 20.9252C19.4671 21.1168 19.5926 21.8215 19.9464 22.5292C20.3001 23.2369 20.7542 23.682 20.9349 23.4856C21.1155 23.2891 20.9544 22.5292 20.5987 21.8287Z" fill="#FE9A35"/>
<path d="M18.3038 21.2607C17.9969 20.5582 17.6229 20.1067 17.4544 20.2366C17.286 20.3665 17.3853 21.0306 17.6865 21.733C17.9866 22.4355 18.3832 22.9152 18.5568 22.7856C18.7303 22.656 18.6102 21.9628 18.3038 21.2607Z" fill="#FE9A35"/>
<path d="M16.2391 22.0874C16.3935 22.0093 16.3295 21.3509 16.0961 20.6168C15.8627 19.8827 15.5483 19.3509 15.3939 19.429C15.2395 19.507 15.3035 20.1654 15.5368 20.8995C15.7702 21.6336 16.0846 22.1654 16.2391 22.0874Z" fill="#FE9A35"/>
<path d="M42.0702 17.3288C41.7937 16.6762 41.55 16.1745 41.438 16.2861C41.329 16.3944 41.4129 17.1048 41.7121 17.8042C42.0094 18.5069 42.3893 18.8823 42.4764 18.7253C42.5652 18.5659 42.3447 17.9841 42.0702 17.3288Z" fill="#FE9A35"/>
<path d="M40.8318 17.1083C40.5636 16.4015 40.3045 15.9732 40.1858 16.2048C40.1068 16.8203 40.2136 17.4508 40.4851 17.9718C40.7952 18.6987 41.1599 19.0386 41.2336 18.789C41.2149 18.1948 41.0766 17.6165 40.8318 17.1083Z" fill="#FE9A35"/>
<path d="M39.4793 16.8731C39.2 16.1763 38.9076 15.8797 38.7828 16.2453C38.7003 16.9284 38.8259 17.6256 39.1342 18.197C39.47 18.8991 39.8323 19.1367 39.8987 18.7692C39.8913 18.1021 39.7468 17.4488 39.4793 16.8731Z" fill="#FE9A35"/>
<path d="M38.0058 16.7065C37.6989 16.0617 37.3622 15.929 37.2346 16.4279C37.1925 16.7926 37.2085 17.1641 37.2816 17.5209C37.3548 17.8777 37.4837 18.2125 37.6607 18.5057C38.0316 19.1509 38.4016 19.2502 38.4643 18.7529C38.4716 18.0292 38.3123 17.3184 38.0058 16.7065Z" fill="#FE9A35"/>
<path d="M36.4107 16.6266C36.0645 16.0606 35.6783 16.1033 35.551 16.7266C35.5069 17.1119 35.5302 17.5048 35.6194 17.8775C35.7085 18.2503 35.8614 18.5939 36.0671 18.8842C36.4797 19.4539 36.8659 19.3949 36.9268 18.7716C36.9527 18.0035 36.7707 17.2471 36.4107 16.6266Z" fill="#FE9A35"/>
<path d="M34.6996 16.6205C34.305 16.1475 33.8684 16.3591 33.7436 17.0909C33.6957 17.4932 33.7266 17.9042 33.8336 18.288C33.9405 18.6718 34.1203 19.0167 34.3573 19.2928C34.8161 19.7803 35.2261 19.5625 35.2875 18.8186C35.3118 18.4212 35.2722 18.0217 35.1712 17.644C35.0702 17.2663 34.9098 16.9182 34.6996 16.6205Z" fill="#FE9A35"/>
<path d="M32.9041 16.8449C32.4902 16.38 32.0288 16.594 31.8899 17.3125C31.8356 17.711 31.8631 18.1204 31.9696 18.5017C32.0762 18.8831 32.2583 19.2237 32.4987 19.4912C32.9706 19.9818 33.4119 19.7745 33.4935 19.0322C33.5276 18.6355 33.4925 18.2342 33.3907 17.8563C33.2889 17.4785 33.1228 17.1333 32.9041 16.8449Z" fill="#FE9A35"/>
<path d="M31.0036 17.1784C30.5851 16.6798 30.1201 16.8001 29.9684 17.431C29.913 17.811 29.9361 18.2026 30.0356 18.5681C30.1351 18.9335 30.3077 19.2604 30.5366 19.5173C31.0031 20.0483 31.4677 19.9494 31.5711 19.2877C31.6076 18.905 31.5757 18.5168 31.4775 18.1517C31.3792 17.7867 31.2173 17.454 31.0036 17.1784Z" fill="#FE9A35"/>
<path d="M29.0121 17.4571C28.5958 16.924 28.1312 16.9477 27.9682 17.4887C27.9114 17.8469 27.9295 18.2177 28.0206 18.5645C28.1117 18.9113 28.2727 19.2223 28.4879 19.467C28.9418 20.0318 29.421 20.0413 29.545 19.47C29.5847 19.1054 29.5573 18.7342 29.4649 18.3851C29.3725 18.036 29.2175 17.7185 29.0121 17.4571Z" fill="#FE9A35"/>
<path d="M26.9589 17.6682C26.5619 17.0812 26.1042 16.9834 25.9235 17.423C25.8577 17.7555 25.8625 18.104 25.9373 18.4335C26.0121 18.763 26.1543 19.0618 26.3497 19.3001C26.7733 19.9116 27.2578 20.0554 27.4114 19.5908C27.4609 19.2481 27.4458 18.8954 27.3671 18.5614C27.2885 18.2274 27.1487 17.9214 26.9589 17.6682Z" fill="#FE9A35"/>
<path d="M24.8218 17.7464C24.4438 17.1371 24.0009 16.954 23.8166 17.31C23.6336 17.665 23.7901 18.4361 24.1844 19.0625C24.5787 19.6889 25.0514 19.9196 25.2184 19.5457C25.273 19.2277 25.2654 18.8978 25.1963 18.5843C25.1272 18.2709 24.9987 17.9833 24.8218 17.7464Z" fill="#FE9A35"/>
<path d="M22.6417 17.7089C22.2895 17.0835 21.8674 16.8246 21.6846 17.1045C21.5035 17.3829 21.6351 18.1032 21.9951 18.7378C22.3551 19.3725 22.8046 19.6754 22.9785 19.3858C23.1525 19.0962 22.9937 18.3321 22.6417 17.7089Z" fill="#FE9A35"/>
<path d="M20.4425 17.5664C20.1202 16.929 19.7256 16.5992 19.5493 16.8111C19.373 17.0229 19.4847 17.7019 19.8085 18.3428C20.1311 18.9842 20.5472 19.3461 20.7211 19.129C20.8951 18.9119 20.7644 18.2025 20.4425 17.5664Z" fill="#FE9A35"/>
<path d="M18.251 17.33C17.9608 16.678 17.5966 16.2804 17.4308 16.4322C17.2649 16.584 17.3608 17.2348 17.6493 17.8887C17.9378 18.5426 18.313 18.955 18.4804 18.8005C18.6477 18.6459 18.5411 17.9828 18.251 17.33Z" fill="#FE9A35"/>
<path d="M16.3131 18.4016C16.4667 18.3011 16.3675 17.6763 16.0916 17.0061C15.8157 16.336 15.4675 15.8742 15.3139 15.9747C15.1604 16.0752 15.2596 16.7 15.5355 17.3702C15.8114 18.0403 16.1596 18.5021 16.3131 18.4016Z" fill="#FE9A35"/>
<path d="M41.6116 13.27C41.56 12.5489 41.4748 11.9929 41.3372 12.0666C41.2018 12.1394 41.0913 12.8464 41.1729 13.6048C41.2522 14.3658 41.4686 14.8555 41.5739 14.7444C41.6816 14.2642 41.6946 13.758 41.6116 13.27Z" fill="#FE9A35"/>
<path d="M40.5513 12.711C40.4767 11.9677 40.3263 11.5003 40.154 11.7074C39.9374 12.2586 39.8903 12.8914 40.0219 13.4838C40.1445 14.244 40.3913 14.6489 40.5122 14.4277C40.6343 13.8677 40.6477 13.2789 40.5513 12.711Z" fill="#FE9A35"/>
<path d="M39.3131 12.2582C39.1968 11.5377 38.9674 11.2101 38.7667 11.5595C38.5475 12.1763 38.5238 12.8755 38.7006 13.5136C38.8783 14.2338 39.1648 14.5115 39.3028 14.1658C39.4376 13.5419 39.4412 12.8844 39.3131 12.2582Z" fill="#FE9A35"/>
<path d="M37.9057 11.9446C37.7315 11.2826 37.4184 11.1267 37.1972 11.6158C37.0882 11.9446 37.0345 12.2983 37.0396 12.6546C37.0446 13.0109 37.1083 13.362 37.2266 13.6857C37.4669 14.3375 37.7977 14.464 37.9519 13.9876C38.1 13.3162 38.0839 12.6042 37.9057 11.9446Z" fill="#FE9A35"/>
<path d="M36.3436 11.7705C36.1013 11.1924 35.7051 11.2224 35.4732 11.8387C35.3633 12.1838 35.3191 12.5567 35.3443 12.9272C35.3694 13.2978 35.4632 13.6558 35.618 13.9723C35.9247 14.5379 36.3028 14.502 36.4703 13.9C36.6337 13.1942 36.5887 12.4376 36.3436 11.7705Z" fill="#FE9A35"/>
<path d="M34.644 11.7169C34.3279 11.2389 33.8543 11.4517 33.62 12.1779C33.5077 12.5348 33.4737 12.9233 33.5215 13.3025C33.5693 13.6817 33.6972 14.0377 33.8917 14.3331C34.266 14.8061 34.6922 14.6071 34.8702 13.8876C34.9612 13.527 34.988 13.1456 34.9489 12.7705C34.9098 12.3953 34.8057 12.0356 34.644 11.7169Z" fill="#FE9A35"/>
<path d="M32.821 11.9395C32.4762 11.4814 31.9814 11.7077 31.7468 12.4239C31.635 12.7768 31.6044 13.1625 31.6588 13.5363C31.7131 13.9102 31.85 14.2571 32.0538 14.5372C32.4485 14.9996 32.901 14.7992 33.0869 14.0805C33.1814 13.7228 33.2066 13.3418 33.1603 12.9693C33.114 12.5968 32.9977 12.2437 32.821 11.9395Z" fill="#FE9A35"/>
<path d="M30.8842 12.3203C30.813 12.2106 30.719 12.128 30.6127 12.0817C30.5064 12.0353 30.392 12.027 30.2823 12.0578C30.1725 12.0885 30.0716 12.157 29.9909 12.2558C29.9102 12.3545 29.8527 12.4795 29.825 12.6169C29.7212 12.9551 29.6957 13.3235 29.7514 13.6793C29.8072 14.0351 29.9418 14.3636 30.1397 14.6267C30.204 14.7425 30.2936 14.8322 30.3976 14.8847C30.5017 14.9373 30.6156 14.9505 30.7255 14.9228C30.8354 14.895 30.9365 14.8275 31.0164 14.7284C31.0963 14.6294 31.1517 14.5031 31.1756 14.3651C31.264 14.0203 31.2837 13.6534 31.2328 13.2967C31.182 12.9401 31.0623 12.6047 30.8842 12.3203Z" fill="#FE9A35"/>
<path d="M28.8734 12.6957C28.8168 12.5807 28.7362 12.4874 28.6404 12.4262C28.5447 12.3649 28.4374 12.338 28.3303 12.3484C28.2233 12.3587 28.1205 12.406 28.0333 12.4849C27.9461 12.5639 27.8777 12.6716 27.8357 12.7962C27.7405 13.1176 27.7196 13.4665 27.7754 13.8024C27.8313 14.1382 27.9615 14.4471 28.1511 14.6933C28.5379 15.2074 28.9975 15.1892 29.1793 14.6312C29.2617 14.3022 29.2768 13.9523 29.2233 13.614C29.1698 13.2756 29.0495 12.9598 28.8734 12.6957Z" fill="#FE9A35"/>
<path d="M26.8201 13.0501C26.4801 12.5022 26.0303 12.4431 25.8166 12.8948C25.7233 13.197 25.6993 13.5263 25.7472 13.8449C25.795 14.1636 25.913 14.4589 26.0874 14.6972C26.4517 15.2532 26.9049 15.3516 27.0944 14.892C27.1757 14.5808 27.1932 14.2486 27.1452 13.9265C27.0972 13.6045 26.9854 13.3029 26.8201 13.0501Z" fill="#FE9A35"/>
<path d="M24.7049 13.3152C24.3733 12.7487 23.9422 12.6093 23.7399 12.9805C23.654 13.2644 23.6328 13.5729 23.6786 13.8712C23.7244 14.1695 23.8355 14.4457 23.9992 14.6686C24.3463 15.2401 24.786 15.4167 24.9722 15.0388C25.0493 14.7468 25.0651 14.4347 25.0183 14.1327C24.9715 13.8307 24.8635 13.5491 24.7049 13.3152Z" fill="#FE9A35"/>
<path d="M22.5597 13.4953C22.2408 12.9132 21.8303 12.6968 21.6394 12.9944C21.4485 13.292 21.5565 13.9925 21.8834 14.5781C22.2103 15.1638 22.63 15.4108 22.8117 15.1095C22.9935 14.8083 22.8778 14.0772 22.5597 13.4953Z" fill="#FE9A35"/>
<path d="M20.3977 13.5825C20.0963 12.9828 19.709 12.6928 19.5307 12.9221C19.3523 13.1513 19.4524 13.8172 19.7574 14.4193C20.0624 15.0213 20.4563 15.332 20.6311 15.1C20.8058 14.8681 20.6991 14.1817 20.3977 13.5825Z" fill="#FE9A35"/>
<path d="M18.2357 13.5704C17.9541 12.9484 17.5929 12.5844 17.4265 12.7523C17.2614 12.92 17.3539 13.5608 17.6357 14.1858C17.9176 14.8108 18.282 15.1832 18.4478 15.0119C18.6136 14.8407 18.5173 14.1927 18.2357 13.5704Z" fill="#FE9A35"/>
<path d="M16.3476 14.7985C16.5008 14.6849 16.3854 14.0793 16.0899 13.446C15.7944 12.8127 15.4306 12.3914 15.2774 12.5051C15.1242 12.6188 15.2396 13.2243 15.5351 13.8577C15.8306 14.491 16.1944 14.9122 16.3476 14.7985Z" fill="#FE9A35"/>
<path d="M42.4163 9.26791C42.589 8.54431 42.6683 7.91677 42.5051 7.89044C42.3439 7.86412 42.0287 8.49666 41.8863 9.27257C41.7415 10.0489 41.7995 10.6358 41.9305 10.611C42.0635 10.5847 42.2417 9.99408 42.4163 9.26791Z" fill="#FE9A35"/>
<path d="M41.5195 8.0458C41.6494 7.27147 41.6134 6.71423 41.3784 6.85069C41.0133 7.30966 40.7972 7.9238 40.7722 8.57304C40.6944 9.36911 40.825 9.85479 41.0049 9.7C41.2843 9.21209 41.4613 8.64306 41.5195 8.0458Z" fill="#FE9A35"/>
<path d="M40.3564 7.10588C40.413 6.3378 40.2425 5.93176 39.9468 6.24932C39.5833 6.80402 39.3934 7.50735 39.413 8.22651C39.423 8.98568 39.6401 9.32048 39.8669 9.016C40.1605 8.44468 40.3294 7.7858 40.3564 7.10588Z" fill="#FE9A35"/>
<path d="M38.9436 6.49704C38.9049 5.78777 38.596 5.58959 38.2582 6.08659C38.0809 6.39064 37.9533 6.73606 37.8827 7.10281C37.812 7.46956 37.7999 7.85034 37.8469 8.22306C37.9552 8.90009 38.2619 9.0527 38.53 8.59077C38.8325 7.96162 38.9767 7.23162 38.9436 6.49704Z" fill="#FE9A35"/>
<path d="M37.3122 6.21684C37.1658 5.6087 36.7284 5.64544 36.3667 6.30314C36.1919 6.62118 36.0781 6.98607 36.0343 7.36904C35.9904 7.75201 36.0177 8.1426 36.114 8.51C36.3232 9.07648 36.7157 9.03316 37.0149 8.41986C37.3266 7.75717 37.4326 6.97228 37.3122 6.21684Z" fill="#FE9A35"/>
<path d="M35.5 6.22248C35.2429 5.74122 34.694 6.0128 34.3281 6.80145C34.1531 7.12407 34.0534 7.50216 34.0403 7.8927C34.0272 8.28325 34.1013 8.67058 34.2542 9.01065C34.5612 9.45558 35.032 9.21741 35.3509 8.46516C35.5121 8.1316 35.6096 7.75528 35.6354 7.36601C35.6613 6.97675 35.615 6.58523 35.5 6.22248Z" fill="#FE9A35"/>
<path d="M33.5142 6.64588C33.2145 6.20602 32.6493 6.51609 32.3024 7.30125C32.1343 7.6202 32.0461 7.99546 32.0491 8.37839C32.0522 8.76132 32.1464 9.13426 32.3196 9.44887C32.6591 9.86632 33.1511 9.60449 33.4604 8.84207C33.6181 8.51259 33.7059 8.13748 33.7153 7.75285C33.7247 7.36822 33.6555 6.987 33.5142 6.64588Z" fill="#FE9A35"/>
<path d="M31.4034 7.32257C31.092 6.87271 30.559 7.10222 30.2496 7.79966C30.0997 8.10903 30.0276 8.46839 30.0428 8.83043C30.058 9.19247 30.1598 9.54023 30.3347 9.82791C30.678 10.266 31.1586 10.0862 31.4363 9.39963C31.5777 9.081 31.6492 8.72057 31.6435 8.35548C31.6377 7.99039 31.5548 7.63384 31.4034 7.32257Z" fill="#FE9A35"/>
<path d="M29.242 8.0363C28.9236 7.56978 28.4215 7.70549 28.1465 8.30821C28.0151 8.60628 27.9582 8.94749 27.9833 9.28705C28.0085 9.62661 28.1145 9.94866 28.2873 10.2109C28.3558 10.3191 28.4459 10.4022 28.5485 10.4516C28.651 10.501 28.7621 10.5148 28.8703 10.4917C28.9785 10.4686 29.0799 10.4094 29.1638 10.3202C29.2477 10.231 29.3111 10.1151 29.3475 9.98449C29.4722 9.67843 29.5284 9.33522 29.5098 8.99189C29.4912 8.64855 29.3986 8.31814 29.242 8.0363Z" fill="#FE9A35"/>
<path d="M27.0664 8.7309C27.0156 8.61533 26.9414 8.51888 26.8513 8.45145C26.7612 8.38402 26.6584 8.34803 26.5537 8.34718C26.4489 8.34634 26.3458 8.38066 26.2551 8.44663C26.1643 8.5126 26.0891 8.60784 26.0371 8.72257C25.9177 9.00792 25.8675 9.33129 25.8929 9.65235C25.9183 9.97341 26.018 10.2779 26.1798 10.528C26.5079 11.0401 26.9559 11.0712 27.1896 10.5758C27.3024 10.2827 27.3505 9.95667 27.3288 9.63202C27.3071 9.30738 27.2165 8.99609 27.0664 8.7309Z" fill="#FE9A35"/>
<path d="M24.8604 9.31261C24.5535 8.77687 24.1125 8.69065 23.885 9.09602C23.7813 9.36805 23.7426 9.67223 23.7735 9.97151C23.8045 10.2708 23.9038 10.5523 24.0593 10.7817C24.3801 11.3168 24.8098 11.4363 25.0231 11.0302C25.1223 10.7523 25.1596 10.4455 25.1309 10.1429C25.1023 9.8403 25.0087 9.55325 24.8604 9.31261Z" fill="#FE9A35"/>
<path d="M22.6497 9.75815C22.3477 9.2 21.9315 9.02172 21.7264 9.34228C21.6368 9.60179 21.6075 9.88803 21.6419 10.1677C21.6764 10.4474 21.7731 10.709 21.9208 10.922C22.2309 11.4814 22.6409 11.6853 22.8372 11.3635C22.9242 11.0996 22.9527 10.8109 22.9197 10.5281C22.8867 10.2454 22.7934 9.97923 22.6497 9.75815Z" fill="#FE9A35"/>
<path d="M20.4437 10.0407C20.1508 9.45621 19.7595 9.18747 19.574 9.42864C19.3884 9.66981 19.4815 10.3352 19.7779 10.9233C20.0743 11.5115 20.4619 11.7959 20.643 11.5504C20.8241 11.3049 20.7363 10.624 20.4437 10.0407Z" fill="#FE9A35"/>
<path d="M18.2526 10.1311C17.9734 9.51352 17.6087 9.15372 17.44 9.32225C17.2713 9.49078 17.3633 10.134 17.6434 10.7579C17.9234 11.3817 18.2851 11.7469 18.4528 11.5712C18.6205 11.3955 18.5318 10.7488 18.2526 10.1311Z" fill="#FE9A35"/>
<path d="M16.3289 11.3715C16.4826 11.2649 16.3762 10.6491 16.0914 9.99611C15.8065 9.34309 15.451 8.90012 15.2973 9.00671C15.1436 9.1133 15.25 9.72909 15.5348 10.3821C15.8197 11.0351 16.1752 11.4781 16.3289 11.3715Z" fill="#FE9A35"/>
<path d="M44.4859 5.8945C44.8833 5.24746 45.1245 4.55661 44.9329 4.38466C44.7437 4.21314 44.226 4.70806 43.8642 5.44423C43.4996 6.18124 43.3993 6.82186 43.5531 6.90567C43.7095 6.98789 44.0864 6.5442 44.4859 5.8945Z" fill="#FE9A35"/>
<path d="M43.7323 3.82823C44.0582 3.04182 44.1248 2.35863 43.8225 2.38553C43.522 2.41194 43.0199 3.16711 42.7554 3.99201C42.4895 4.81924 42.5142 5.38463 42.7535 5.3214C42.9938 5.25518 43.4047 4.61705 43.7323 3.82823Z" fill="#FE9A35"/>
<path d="M42.5886 2.18877C42.8037 1.35054 42.6739 0.812386 42.2788 1.07638C41.7697 1.58095 41.4215 2.29939 41.2975 3.10072C41.1572 3.92545 41.3215 4.3384 41.6407 4.09406C42.096 3.5878 42.4253 2.92602 42.5886 2.18877Z" fill="#FE9A35"/>
<path d="M41.0888 1.07757C41.1657 0.275414 40.8397 -0.0154899 40.378 0.487928C39.8864 1.09511 39.592 1.91157 39.5522 2.77784C39.5498 3.52401 39.8543 3.72953 40.2417 3.28601C40.6991 2.6786 40.9951 1.90675 41.0888 1.07757Z" fill="#FE9A35"/>
<path d="M39.287 0.512659C39.2135 -0.18078 38.7091 -0.171783 38.2095 0.545982C37.9746 0.867759 37.7975 1.2496 37.6902 1.6655C37.5829 2.08139 37.548 2.52157 37.5878 2.95602C37.7249 3.57324 38.1592 3.54266 38.5964 2.90421C39.0517 2.24101 39.2976 1.38973 39.287 0.512659Z" fill="#FE9A35"/>
<path d="M37.2481 0.439195C37.0231 -0.0971284 36.3702 0.217602 35.8613 1.10564C35.6303 1.42676 35.4723 1.82051 35.4039 2.2454C35.3355 2.67028 35.3592 3.11057 35.4726 3.51985C35.74 3.98453 36.2875 3.71487 36.7555 2.89906C36.9826 2.56474 37.1452 2.16871 37.2306 1.74197C37.3161 1.31523 37.3221 0.869342 37.2481 0.439195Z" fill="#FE9A35"/>
<path d="M34.9751 0.979184C34.6939 0.512171 34.0268 0.903209 33.5542 1.79941C33.0813 2.69329 32.9978 3.71545 33.3081 4.13198C33.6202 4.54851 34.186 4.22845 34.6305 3.3829C35.0731 2.53959 35.2577 1.44586 34.9751 0.979184Z" fill="#FE9A35"/>
<path d="M32.5602 1.91669C32.264 1.45734 31.6502 1.77673 31.2424 2.57622C31.0491 2.88132 30.9338 3.25314 30.9116 3.64261C30.8894 4.03208 30.9614 4.42088 31.1181 4.75767C31.4376 5.18445 31.9725 4.93828 32.358 4.16953C32.5495 3.85179 32.6694 3.47473 32.7049 3.07819C32.7405 2.68165 32.6905 2.28035 32.5602 1.91669Z" fill="#FE9A35"/>
<path d="M30.1176 2.9662C29.812 2.50277 29.2482 2.72337 28.8994 3.41439C28.7323 3.70813 28.6409 4.05962 28.6377 4.4211C28.6345 4.78258 28.7197 5.13653 28.8815 5.43489C29.2053 5.87933 29.7092 5.72222 30.04 5.05102C30.2064 4.74754 30.302 4.39122 30.3157 4.02264C30.3294 3.65405 30.2608 3.28801 30.1176 2.9662Z" fill="#FE9A35"/>
<path d="M27.6949 4.02534C27.6282 3.91075 27.5389 3.8201 27.4359 3.76234C27.3328 3.70459 27.2196 3.68174 27.1074 3.69604C26.9952 3.71034 26.888 3.76131 26.7962 3.8439C26.7044 3.92648 26.6313 4.03784 26.5841 4.16696C26.4371 4.44975 26.3609 4.78168 26.3654 5.11973C26.3698 5.45778 26.4547 5.78635 26.609 6.06284C26.6689 6.17758 26.7519 6.27023 26.8494 6.33135C26.947 6.39247 27.0557 6.41987 27.1644 6.41075C27.2731 6.40163 27.3779 6.35632 27.4682 6.27943C27.5585 6.20255 27.631 6.09686 27.6783 5.97312C27.8239 5.68226 27.9025 5.34613 27.9055 5.0022C27.9084 4.65828 27.8355 4.32009 27.6949 4.02534Z" fill="#FE9A35"/>
<path d="M25.2823 4.96417C25.2348 4.84757 25.1643 4.74839 25.0775 4.67621C24.9907 4.60404 24.8906 4.56131 24.7869 4.55215C24.6832 4.543 24.5793 4.56773 24.4854 4.62395C24.3915 4.68018 24.3106 4.766 24.2507 4.87312C24.1269 5.14276 24.07 5.45303 24.0875 5.76383C24.105 6.07464 24.1959 6.37169 24.3487 6.61663C24.6575 7.13238 25.0987 7.20169 25.3503 6.7485C25.474 6.47342 25.5332 6.15976 25.5212 5.84393C25.5092 5.52809 25.4263 5.22304 25.2823 4.96417Z" fill="#FE9A35"/>
<path d="M22.9073 5.73123C22.61 5.18916 22.1718 5.05728 21.945 5.41467C21.8421 5.67224 21.8016 5.96232 21.8287 6.24872C21.8557 6.53511 21.949 6.80512 22.097 7.02505C22.4013 7.56571 22.8181 7.72999 23.0374 7.37344C23.1411 7.11223 23.184 6.81927 23.1609 6.52858C23.1379 6.23789 23.05 5.9614 22.9073 5.73123Z" fill="#FE9A35"/>
<path d="M20.5768 6.27836C20.2837 5.70897 19.8772 5.47404 19.6796 5.73771C19.482 6.00137 19.5702 6.6699 19.8663 7.2423C20.1624 7.81469 20.555 8.07011 20.7487 7.80261C20.9424 7.53512 20.8701 6.84609 20.5768 6.27836Z" fill="#FE9A35"/>
<path d="M18.3008 6.5562C18.0183 5.95073 17.6439 5.60909 17.4704 5.78754C17.2969 5.96598 17.3886 6.60735 17.6714 7.22206C17.9542 7.83678 18.32 8.18458 18.4931 7.99681C18.6662 7.80904 18.5831 7.16142 18.3008 6.5562Z" fill="#FE9A35"/>
<path d="M16.3314 7.88314C16.486 7.7759 16.3805 7.15923 16.0955 6.50578C15.8106 5.85232 15.4543 5.40952 15.2996 5.51676C15.1449 5.624 15.2504 6.24067 15.5354 6.89413C15.8203 7.54758 16.1767 7.99038 16.3314 7.88314Z" fill="#FE9A35"/>
<path d="M16.3295 54.9608C16.5024 55.1789 16.5601 55.5423 16.4736 55.7968C15.9836 57.1052 15.58 58.4863 14.6577 59.395C13.8506 60.2309 12.8705 60.1946 11.8329 59.3223C10.8528 58.5227 9.98808 57.4687 9.09452 56.5237C8.51803 55.9058 8.20096 55.4333 7.82624 55.0335C7.1921 54.2702 7.27858 53.0345 7.27858 53.0345V39.1141C7.27858 38.6052 7.07681 38.1691 6.84621 37.7693C6.58679 37.3331 6.26972 37.2604 5.92382 37.5149C5.69323 37.6966 5.43381 37.8783 5.23204 38.1327C4.54025 38.8597 3.93493 39.7319 3.30079 40.5679C2.78195 41.2585 2.17663 41.2585 1.68662 40.5316C1.1966 39.841 0.706583 39.1868 0.245391 38.4962C-0.0428544 38.06 -0.0716789 37.7693 0.130093 37.2604C0.274216 37.006 0.418338 36.7516 3.18549 33.6259C3.44491 33.3351 3.70433 33.1897 4.0214 33.1534C4.56907 33.0443 4.94379 33.3714 5.34733 33.8076C6.99033 35.5522 8.63333 37.2968 10.2763 39.005C10.9969 39.732 11.4005 40.7496 11.4005 41.9854V51.726C11.5158 52.3803 11.7752 52.7801 12.3805 53.4343C13.0147 54.1249 13.62 54.7791 14.5135 55.0335C14.9459 55.1789 15.3494 55.1789 15.753 54.9608C15.9548 54.8154 16.1565 54.7064 16.3295 54.9608ZM14.6577 56.8508C14.7153 56.3783 14.3694 56.5237 14.3694 56.5237C14.0235 56.7417 13.447 56.4873 13.447 56.4873C12.8129 56.2329 11.977 55.3243 10.5646 53.9068C10.161 53.5433 9.87279 52.9981 9.87279 52.3076C9.90161 50.3812 9.87279 48.4549 9.87279 40.5316C9.84396 40.2771 9.78631 40.1318 9.58454 40.0227C9.29629 39.9137 9.03687 40.2408 9.00805 40.786V52.562C9.03687 53.1799 9.15217 53.8341 9.55572 54.3066C10.2763 55.2152 12.1211 57.0689 12.957 57.4323C13.3317 57.614 13.7641 57.614 13.7641 57.614C14.0523 57.6504 14.2829 57.505 14.2829 57.505C14.6577 57.2869 14.6577 56.8508 14.6577 56.8508ZM4.5979 36.0974C4.74202 35.952 4.82849 35.7339 4.74202 35.5158C4.62672 35.2614 4.45377 35.1524 4.19435 35.1887C4.07905 35.1887 3.99258 35.3341 3.87728 35.4432L1.60014 37.9874C1.36955 38.2054 1.28307 38.4235 1.48485 38.7506C1.62897 39.005 1.94604 39.0414 2.17663 38.787C2.69548 38.2418 3.21432 37.6602 3.73316 37.0787L4.5979 36.0974ZM18.7796 56.3783C18.2031 55.9058 18.059 55.1789 18.059 54.3793C17.9437 49.9088 18.0013 45.4382 18.0013 40.9677C18.0013 40.2771 18.1743 39.6593 18.6066 39.1868C19.6443 37.9874 20.8549 37.0787 21.9791 36.0247C22.8727 35.1524 23.8239 34.3164 24.7462 33.4805C25.4092 32.8626 26.2739 32.899 26.9369 33.5532L29.7041 36.2428C29.8194 36.3518 29.9347 36.4972 30.0211 36.6426C30.4823 37.2604 30.4535 37.6602 29.9347 38.2418L28.5223 39.9864C27.9458 40.6406 27.3405 40.6769 26.764 40.0227L24.3715 37.4785C23.968 37.1151 23.5356 36.9333 23.1032 37.2604C22.6132 37.5876 22.4979 38.1327 22.4691 38.7506L22.5556 51.9805C22.5556 52.4893 22.6997 52.9254 22.9879 53.2162L24.3139 54.4156C24.4868 54.5973 24.7462 54.6337 24.9768 54.6337C25.438 54.67 25.6686 54.3793 25.6686 53.7614V47.4372C25.6686 46.3469 25.8992 46.0561 26.764 46.0198C27.4558 46.0198 28.1764 46.0561 28.8682 46.0198C29.7617 45.9834 30.0788 46.6376 30.1076 47.5463C30.1364 48.8911 30.0788 50.2722 30.0788 51.6533C30.0788 52.453 29.7905 52.9981 29.2717 53.3979C27.2828 54.9608 25.2651 56.5237 23.3338 58.2319C23.0168 58.5227 22.6997 58.8498 22.2962 58.9225C21.9503 58.9952 21.6044 58.9588 21.3161 58.7044C20.4514 57.9775 19.6155 57.1416 18.7796 56.3783ZM20.0478 40.6406V52.4166C20.0478 53.1072 20.0478 53.7977 20.4802 54.3066C21.0567 54.9972 21.6908 55.615 22.2962 56.2329C22.5556 56.4873 22.7862 56.451 22.9879 56.1602C23.1897 55.8694 23.1032 55.615 22.8727 55.3606C22.3826 54.8518 21.9214 54.3066 21.4026 53.8341C21.0279 53.4706 20.9126 53.0345 20.9126 52.4893C20.9702 48.6003 20.9702 44.6023 20.9126 40.6769C20.9126 40.0954 20.7973 39.841 20.4802 39.841C20.1631 39.841 20.0478 40.0954 20.0478 40.6406ZM27.4269 47.9097V51.9805C27.4269 52.453 27.5999 52.7074 27.8881 52.671C28.2052 52.671 28.3493 52.4166 28.3493 52.0531C28.3493 50.672 28.3493 49.2909 28.3205 47.9097C28.3205 47.5099 28.2052 47.2555 27.8881 47.2555C27.5422 47.2555 27.4269 47.5099 27.4269 47.9097ZM25.3227 35.116C25.0921 35.4795 25.2651 35.6976 25.4669 35.952C26.1586 36.6426 26.8504 37.3331 27.5134 38.06C27.6287 38.1691 27.744 38.2781 28.0034 38.2781C28.1475 38.2781 28.2917 38.1691 28.3781 37.9147C28.4646 37.6602 28.3781 37.4422 28.234 37.2968L26.0433 35.0434C25.7839 34.7889 25.4957 34.8253 25.3227 35.116ZM33.5666 56.1966C32.8748 55.506 32.5289 54.6337 32.5289 53.4706C32.5577 49.1455 32.5289 44.784 32.5289 40.4589C32.5289 39.2595 32.2406 38.3145 31.2894 37.8056C30.6265 37.4422 30.5976 37.0424 31.0876 36.3518C31.7218 35.5158 32.3271 34.6435 32.9612 33.7713C33.5666 32.9353 34.0566 32.899 34.7195 33.6622L37.0831 36.3518C37.2561 36.5335 37.3426 36.7879 37.429 37.0787C38.4667 36.0974 39.5332 35.1887 40.5133 34.2074C41.4068 33.3351 42.3004 33.5895 43.021 34.2801C43.511 34.7889 43.9434 35.2978 44.4046 35.8066C44.6063 36.0247 44.6928 36.3155 44.6928 36.6426V50.5993C44.6928 51.2899 44.5487 51.9078 44.1452 52.4166C43.4534 53.2889 42.6463 53.9795 41.9257 54.7064L37.8902 58.6681C37.2849 59.2496 36.3914 59.2133 35.786 58.559C35.0654 57.7594 34.3448 56.9235 33.5666 56.1966ZM36.9967 40.2408C36.9967 44.2752 36.9678 48.3095 36.9678 52.3439C36.9678 52.7074 37.0255 52.9981 37.2273 53.2162C37.6885 53.7977 38.1785 54.3429 38.755 54.7064C39.1297 54.9608 39.4179 54.8881 39.7062 54.4883C40.0521 54.0158 40.225 53.4706 40.225 52.7801V40.8223C40.225 40.2408 40.1962 39.6956 39.9944 39.1504C39.5621 38.0237 38.4955 37.6602 37.6885 38.3872C37.1984 38.8597 36.9967 39.4775 36.9967 40.2408ZM33.0189 35.8793C32.8171 36.1337 32.8171 36.4245 33.0189 36.7153C33.2495 37.006 33.4801 37.3331 33.7395 37.5876C34.2583 38.0964 34.4025 38.8233 34.4025 39.5502L34.4313 53.6524C34.4313 54.1249 34.5466 54.561 34.806 54.9245C35.1807 55.4333 35.6419 55.8694 36.0743 56.3419C36.3049 56.5964 36.5643 56.56 36.7373 56.2693C36.939 55.9785 36.8814 55.6877 36.6508 55.4696C36.3049 55.1062 35.9878 54.7427 35.6707 54.3429C35.469 54.1249 35.3248 53.8704 35.3248 53.507V39.841C35.3248 38.9687 35.296 38.0964 34.8348 37.3695C34.4601 36.8243 34.0566 36.3518 33.6242 35.8793C33.4224 35.6249 33.2207 35.6249 33.0189 35.8793ZM40.5133 36.061C40.3403 36.3881 40.4556 36.6062 40.6574 36.7879C40.9456 37.0787 41.2051 37.4422 41.5509 37.6966C42.1563 38.1691 42.2716 38.8233 42.2716 39.6593V50.6357C42.2716 51.2535 42.4157 51.508 42.7328 51.508C43.0498 51.508 43.1651 51.2535 43.1651 50.672V39.1868C43.1363 38.6416 43.1363 38.0237 42.8192 37.5876C42.3292 36.9333 41.7239 36.3881 41.1474 35.8793C40.9168 35.6612 40.6574 35.7703 40.5133 36.061ZM48.3247 58.341L46.2782 55.506C45.9035 54.9608 45.9611 54.561 46.4511 54.3066C47.5465 53.7614 47.8635 52.7074 47.8635 51.3626C47.8347 47.0738 47.8635 42.8213 47.8347 38.5325C47.8347 37.3695 48.1806 36.4972 48.8724 35.8066C49.6506 35.0434 50.3713 34.2437 51.0919 33.4441C51.6972 32.7899 52.5619 32.7172 53.1961 33.3351L58.7592 38.787C59.5951 39.5866 60.0275 40.5679 59.9986 41.949C59.8834 45.9834 59.9122 50.0541 59.9698 54.0522C59.9986 54.9608 59.6528 55.506 59.1339 56.0512L57.0297 58.1229C56.3956 58.7771 55.7038 58.7771 55.0408 58.1592C54.2337 57.396 53.4267 56.6691 52.6196 55.8694C52.4466 55.7241 52.3313 55.7241 52.1584 55.9058L49.9677 58.4136C49.3624 59.1042 48.8436 59.0679 48.3247 58.341ZM55.0408 37.5512C54.7526 37.1151 54.4355 37.0424 54.032 37.2968C53.6284 37.5512 53.2825 37.951 52.9366 38.3145C52.4754 38.787 52.2737 39.4048 52.2737 40.1318L52.3313 53.2889C52.3313 54.2339 53.0808 54.7791 53.7725 54.3793C54.1761 54.0885 54.5796 53.7614 54.9832 53.3979C55.3867 53.0345 55.5597 52.562 55.5597 51.9441C55.5308 47.6917 55.5308 43.4392 55.5308 39.1504C55.5308 38.5325 55.3579 38.0237 55.0408 37.5512ZM48.44 55.3243C48.2094 55.5423 48.0653 55.7968 48.2671 56.1602C48.44 56.451 48.7571 56.4873 49.0165 56.1966C49.3047 55.9058 49.5642 55.5787 49.8812 55.3243C50.6595 54.67 50.9477 53.8341 50.9477 52.6347C50.8901 47.7644 50.9477 42.8577 50.9477 37.9874C50.9477 37.5512 51.063 37.2241 51.3513 36.9333C51.9278 36.4245 52.4754 35.843 53.0231 35.2978C53.3402 35.007 53.3114 34.6072 53.0231 34.3891C52.7925 34.2437 52.5907 34.2801 52.389 34.4982C51.9278 34.9707 51.4666 35.4795 50.9477 35.9157C50.1983 36.4972 50.0254 37.3331 50.0254 38.3508C49.9965 40.786 50.0254 43.2575 50.0254 53.1435C50.0254 53.5797 49.9101 53.8704 49.6506 54.1249C49.2471 54.4883 48.8436 54.9245 48.44 55.3243ZM57.2027 52.9618C57.2027 53.2526 57.0874 53.4706 56.9144 53.6887C56.3668 54.2339 55.8191 54.8518 55.2714 55.4333C55.0697 55.6514 55.012 55.8694 55.185 56.1602C55.3579 56.4146 55.5885 56.451 55.8191 56.3056C55.9056 56.2693 55.9632 56.1966 56.0209 56.1239C56.5109 55.5787 57.0009 55.0335 57.5197 54.5247C57.8656 54.1612 58.0674 53.725 58.1251 53.1435C58.1539 52.7801 58.1827 52.3803 58.1827 51.9805V40.4225C58.1827 40.1318 58.1251 39.841 57.8945 39.7319C57.5197 39.5866 57.2891 39.8773 57.2891 40.4225V51.726C57.2891 52.1258 57.2315 52.562 57.2027 52.9618Z" fill="#FE9A35"/>
</svg>
